PathFileType	4	(X/Y/Z)	C:/Users/beibeiliu/ov580/test_trc\sequence.44_training_dense_left.trc
DataRate	CameraRate	NumFrames	NumMarkers	Units	OrigDataRate	OrigDataStartFrame	OrigNumFrames
120	120	8	19	mm	120	37	73
Frame#	Time	ThumbCMC			ThumbMCP			ThumbIP			ThumbTip			IndexMCP			IndexPIP			IndexTip			MiddleMCP			MiddlePIP			MiddleTip			RingMCP			RingPIP			RingTip			PinkyMCP			PinkyPIP			PinkyTip			BackHand1			BackHand2			BackHand3	
		X0	Y0	Z0	X1	Y1	Z1	X2	Y2	Z2	X3	Y3	Z3	X4	Y4	Z4	X5	Y5	Z5	X6	Y6	Z6	X7	Y7	Z7	X8	Y8	Z8	X9	Y9	Z9	X10	Y10	Z10	X11	Y11	Z11	X12	Y12	Z12	X13	Y13	Z13	X14	Y14	Z14	X15	Y15	Z15	X16	Y16	Z16	X17	Y17	Z17	X18	Y18	Z18	
36	0.3	-207.189	79.4571	88.5953	-194.842	65.7901	61.0849	-192.582	62.7185	39.6927	-196.772	60.7943	12.4029	-185.236	106.612	30.2637	-183.944	87.3479	11.553	-200.991	68.8802	28.718	-200.065	108.713	18.263	-199.596	82.6065	4.51376	-217.844	68.9126	28.7768	-220.494	107.418	16.0758	-218.987	81.7662	8.98037	-227.001	72.0289	38.2964	-235.581	103.455	16.5981	-232.198	81.2079	16.2824	-238.461	72.2401	40.2883	-238.465	122.444	60.8307	-246.416	117.803	84.2723	-220.055	112.781	81.5866	
37	0.308333	-206.86	72.2886	88.2082	-192.687	56.4388	63.3226	-190.405	51.4969	43.6369	-194.031	49.6869	16.5657	-180.054	93.3766	28.5768	-182.031	71.034	15.0214	-197.375	57.1115	36.1199	-198.465	97.7548	20.1644	-199.997	71.0041	6.48918	-216.817	60.6038	31.275	-217.678	96.8441	15.7904	-215.929	67.4059	13.8452	-229.793	63.2556	40.2439	-235.811	98.1114	18.8367	-233.401	71.8629	15.7578	-232.254	63.5486	39.0398	-231.422	112.45	64.2077	-246.753	111.368	83.781	-212.822	104.311	82.7646	
38	0.316667	-206.503	68.6517	89.9544	-189.802	47.884	68.0506	-185.233	44.2281	44.3846	-193.489	44.412	22.7032	-178.195	88.6705	35.1359	-176.385	63.7184	18.9717	-196.696	51.9214	37.0992	-191.871	90.0217	23.2571	-197.57	63.2717	9.29032	-214.512	54.8833	37.488	-211.578	88.0863	17.3193	-214.021	61.493	14.4614	-224.481	55.9142	40.0327	-231.02	88.0601	19.2141	-231.44	64.4013	17.3633	-234.581	58.1702	46.0108	-232.648	106.548	62.234	-240.625	103.601	86.0066	-211.58	99.7552	85.249	
39	0.325	-205.007	67.7259	91.2094	-190.288	50.516	70.7432	-182.372	45.4675	43.7756	-190.889	45.3723	17.9751	-176.375	88.6709	32.1865	-173.865	68.3996	18.6677	-191.521	50.858	40.1388	-194.125	89.3939	19.4998	-195.978	61.3307	11.8214	-210.678	51.6979	35.2062	-210.376	86.4854	19.7447	-212.218	59.1663	16.8982	-223.969	53.7379	43.428	-230.035	83.6127	18.465	-227.309	60.3015	20.4564	-230.983	57.6359	46.8911	-230.247	104.628	64.9475	-244.063	99.2456	85.5695	-212.96	96.3245	88.1089	
40	0.333333	-199.403	68.8051	93.1731	-185.292	55.8244	69.4004	-177.886	51.6722	45.9183	-184.738	49.1842	20.2795	-178.941	97.1003	33.5457	-173.558	74.5178	21.509	-189.194	56.4571	37.7826	-195.292	94.5426	22.3498	-192.325	68.1405	11.9241	-202.219	53.8861	39.3692	-213.898	89.5045	19.0816	-208.43	62.8257	16.4897	-217.415	56.0275	45.2922	-230.08	86.7122	22.3748	-225.69	61.8734	20.0592	-224.426	55.9406	46.3781	-236.283	105.388	61.1089	-247.019	97.6189	87.1474	-218.622	100.45	87.5513	
41	0.341667	-199.631	72.5479	95.3757	-186.597	58.5199	73.2505	-175.967	55.4031	44.9403	-185.01	56.2109	22.1852	-178.806	101.928	39.824	-171.904	82.6394	22.1544	-187.289	61.3891	36.9232	-195.494	99.5002	23.1666	-190.331	72.7693	12.9468	-205.591	57.2557	37.7931	-215.411	94.3162	20.3403	-205.572	68.3723	17.889	-213.036	58.4961	43.5364	-232.754	88.044	20.1718	-223.249	64.6892	21.5188	-226.204	57.2273	48.578	-236.375	106.151	64.9614	-245.587	97.5591	89.2084	-218.521	100.82	91.0784	
42	0.35	-200.49	73.4842	93.2523	-181.536	58.7681	73.7134	-179.524	59.6229	46.2274	-184.807	57.7461	26.1643	-175.969	103.939	43.2062	-171.95	81.0144	24.4553	-186.885	61.5503	43.1546	-193.503	100.508	24.664	-191.517	74.5885	13.5126	-201.273	58.3338	42.0461	-214.483	95.9637	22.7838	-209.624	68.2227	17.6318	-213.714	59.0664	43.3717	-232.235	90.2521	22.4338	-221.642	67.2808	22.2941	-221.906	59.3658	47.2094	-236.198	106.629	69.4207	-247.006	97.5757	91.138	-218.889	101.136	92.06	
43	0.358333	-199.466	73.1634	96.8672	-184.163	61.3553	73.8307	-177.749	57.8367	51.969	-183.969	57.5881	24.2379	-178.792	104.489	40.5311	-168.577	84.4124	25.054	-183.984	61.8965	39.1926	-195.69	103.116	28.9389	-187.59	74.7562	15.8282	-201.581	60.0241	38.6367	-210.618	96.5155	22.5855	-206.563	72.583	17.2483	-216.431	59.3638	43.0114	-227.367	92.2323	24.2867	-221.39	69.6247	22.1839	-220.952	59.9186	44.9511	-232.525	108.752	69.3899	-248.919	99.7	91.4827	-216.71	101.258	94.8032	
